<?xml version="1.0" encoding="UTF-8" standalone="no" ?>
<!DOCTYPE svg PUBLIC "-//W3C//DTD SVG 1.1//EN" "http://www.w3.org/Graphics/SVG/1.1/DTD/svg11.dtd">
<svg xmlns="http://www.w3.org/2000/svg" xmlns:xlink="http://www.w3.org/1999/xlink" version="1.1" width="498" height="246" viewBox="0 0 498 246" xml:space="preserve">
<desc>Created with Fabric.js 3.6.3</desc>
<defs>
</defs>
<g transform="matrix(0.13 0 0 -0.13 249.44 123.18)"  >
<path style="stroke: rgb(255,255,255); stroke-width: 10; stroke-dasharray: none; stroke-linecap: butt; stroke-dashoffset: 0; stroke-linejoin: miter; stroke-miterlimit: 4; fill: rgb(114,114,114); fill-opacity: 0; fill-rule: nonzero; opacity: 1;" vector-effect="non-scaling-stroke"  transform=" translate(-1855.6, -939.82)" d="M 1105 1818 c -38 -5 -169 -11 -290 -12 c -242 -4 -289 -12 -362 -65 c -52 -38 -91 -116 -105 -210 c -10 -69 -8 -100 18 -276 c 7 -51 -18 -91 -101 -155 c -125 -97 -206 -229 -232 -379 c -13 -72 -14 -105 -4 -201 c 6 -63 14 -167 17 -230 c 3 -63 10 -129 15 -146 c 19 -62 107 -67 130 -7 c 8 20 7 77 -2 204 c -17 249 -10 352 29 432 c 43 86 126 176 204 218 l 63 34 l 135 -1 c 123 0 144 -3 232 -32 c 149 -48 204 -57 258 -42 c 60 16 118 77 150 158 c 18 45 39 77 73 109 c 48 45 50 45 104 41 c 52 -5 60 -9 105 -56 c 44 -46 48 -55 48 -100 c 0 -27 -7 -71 -15 -98 c -9 -27 -27 -101 -40 -164 c -14 -63 -37 -162 -51 -220 c -22 -86 -27 -130 -28 -240 c -1 -130 0 -137 26 -181 c 31 -53 71 -90 132 -122 c 91 -48 269 -19 330 54 c 29 35 102 257 116 354 c 6 39 13 144 15 235 c 4 102 14 209 27 280 c 20 110 23 117 63 158 c 57 57 90 57 151 0 c 31 -30 50 -61 65 -103 c 33 -94 21 -191 -72 -580 c -43 -182 -7 -310 104 -364 c 49 -24 80 -26 195 -16 c 105 10 137 30 176 108 c 24 47 30 76 36 165 c 4 59 20 159 35 222 c 30 125 37 270 21 411 l -8 75 l 35 37 c 31 34 39 37 87 37 c 50 0 56 -3 94 -43 c 37 -38 43 -52 64 -147 c 29 -135 28 -181 -5 -282 c -26 -78 -28 -92 -25 -233 c 3 -132 6 -155 25 -190 c 25 -44 36 -51 164 -100 c 103 -39 139 -43 186 -19 c 100 52 155 137 183 284 c 24 123 13 429 -20 591 c -47 231 -179 442 -343 549 c -127 84 -166 95 -558 164 c -443 77 -691 99 -1195 102 c -212 1 -416 -2 -455 -8 z m 585 -158 c 190 -6 388 -14 440 -20 c 52 -5 167 -17 255 -25 c 88 -8 187 -19 220 -25 c 33 -5 107 -14 165 -21 c 200 -22 376 -57 432 -85 c 113 -57 263 -245 313 -391 c 55 -161 81 -484 50 -633 c -29 -141 -71 -200 -146 -200 c -45 0 -95 37 -115 87 c -23 53 -18 225 8 303 c 30 94 27 213 -12 386 c -16 74 -36 147 -44 162 c -38 73 -122 113 -251 120 c -120 6 -195 -15 -246 -68 c -55 -57 -61 -99 -48 -293 l 11 -162 l -36 -176 c -20 -96 -36 -200 -36 -231 c 0 -51 -3 -58 -35 -87 c -46 -40 -73 -39 -116 5 c -29 30 -34 41 -32 77 c 1 23 9 62 18 86 c 23 65 72 323 80 416 c 14 173 -29 311 -128 410 c -43 42 -67 57 -112 71 c -124 36 -254 0 -311 -86 c -64 -96 -101 -288 -114 -590 c -10 -229 -40 -363 -92 -417 c -27 -28 -39 -33 -78 -33 c -38 0 -51 5 -72 28 c -34 36 -48 65 -48 97 c 0 24 72 356 116 535 c 41 166 46 203 33 260 c -31 145 -116 234 -252 265 c -87 20 -144 14 -224 -24 c -67 -32 -116 -84 -148 -156 c -25 -56 -94 -125 -125 -125 c -11 0 -71 15 -133 34 c -61 19 -139 37 -172 41 c -33 4 -72 14 -88 22 c -68 34 -113 148 -105 265 c 4 52 9 63 43 98 c 21 22 53 44 69 49 c 17 5 117 12 221 16 c 105 3 233 10 285 14 c 142 11 184 11 560 1 z" stroke-linecap="round" />
</g>
</svg>