<?xml version="1.0" standalone="no"?>
<!DOCTYPE svg PUBLIC "-//W3C//DTD SVG 20010904//EN"
 "http://www.w3.org/TR/2001/REC-SVG-20010904/DTD/svg10.dtd">
<svg version="1.0" xmlns="http://www.w3.org/2000/svg"
 width="375.000000pt" height="189.000000pt" viewBox="0 0 375.000000 189.000000"
 preserveAspectRatio="xMidYMid meet">

<g transform="translate(0.000000,189.000000) scale(0.100000,-0.100000)"
fill="#000000" stroke="none">
<path d="M1105 1818 c-38 -5 -169 -11 -290 -12 -242 -4 -289 -12 -362 -65 -52
-38 -91 -116 -105 -210 -10 -69 -8 -100 18 -276 7 -51 -18 -91 -101 -155 -125
-97 -206 -229 -232 -379 -13 -72 -14 -105 -4 -201 6 -63 14 -167 17 -230 3
-63 10 -129 15 -146 19 -62 107 -67 130 -7 8 20 7 77 -2 204 -17 249 -10 352
29 432 43 86 126 176 204 218 l63 34 135 -1 c123 0 144 -3 232 -32 149 -48
204 -57 258 -42 60 16 118 77 150 158 18 45 39 77 73 109 48 45 50 45 104 41
52 -5 60 -9 105 -56 44 -46 48 -55 48 -100 0 -27 -7 -71 -15 -98 -9 -27 -27
-101 -40 -164 -14 -63 -37 -162 -51 -220 -22 -86 -27 -130 -28 -240 -1 -130 0
-137 26 -181 31 -53 71 -90 132 -122 91 -48 269 -19 330 54 29 35 102 257 116
354 6 39 13 144 15 235 4 102 14 209 27 280 20 110 23 117 63 158 57 57 90 57
151 0 31 -30 50 -61 65 -103 33 -94 21 -191 -72 -580 -43 -182 -7 -310 104
-364 49 -24 80 -26 195 -16 105 10 137 30 176 108 24 47 30 76 36 165 4 59 20
159 35 222 30 125 37 270 21 411 l-8 75 35 37 c31 34 39 37 87 37 50 0 56 -3
94 -43 37 -38 43 -52 64 -147 29 -135 28 -181 -5 -282 -26 -78 -28 -92 -25
-233 3 -132 6 -155 25 -190 25 -44 36 -51 164 -100 103 -39 139 -43 186 -19
100 52 155 137 183 284 24 123 13 429 -20 591 -47 231 -179 442 -343 549 -127
84 -166 95 -558 164 -443 77 -691 99 -1195 102 -212 1 -416 -2 -455 -8z m585
-158 c190 -6 388 -14 440 -20 52 -5 167 -17 255 -25 88 -8 187 -19 220 -25 33
-5 107 -14 165 -21 200 -22 376 -57 432 -85 113 -57 263 -245 313 -391 55
-161 81 -484 50 -633 -29 -141 -71 -200 -146 -200 -45 0 -95 37 -115 87 -23
53 -18 225 8 303 30 94 27 213 -12 386 -16 74 -36 147 -44 162 -38 73 -122
113 -251 120 -120 6 -195 -15 -246 -68 -55 -57 -61 -99 -48 -293 l11 -162 -36
-176 c-20 -96 -36 -200 -36 -231 0 -51 -3 -58 -35 -87 -46 -40 -73 -39 -116 5
-29 30 -34 41 -32 77 1 23 9 62 18 86 23 65 72 323 80 416 14 173 -29 311
-128 410 -43 42 -67 57 -112 71 -124 36 -254 0 -311 -86 -64 -96 -101 -288
-114 -590 -10 -229 -40 -363 -92 -417 -27 -28 -39 -33 -78 -33 -38 0 -51 5
-72 28 -34 36 -48 65 -48 97 0 24 72 356 116 535 41 166 46 203 33 260 -31
145 -116 234 -252 265 -87 20 -144 14 -224 -24 -67 -32 -116 -84 -148 -156
-25 -56 -94 -125 -125 -125 -11 0 -71 15 -133 34 -61 19 -139 37 -172 41 -33
4 -72 14 -88 22 -68 34 -113 148 -105 265 4 52 9 63 43 98 21 22 53 44 69 49
17 5 117 12 221 16 105 3 233 10 285 14 142 11 184 11 560 1z"/>
</g>
</svg>
